<svg width="85" height="78" viewBox="0 0 85 78" fill="none" xmlns="http://www.w3.org/2000/svg">
<path d="M50.9859 78H38.9943L39.0685 68.0213H50.9859C53.4609 68.0213 55.5523 67.43 57.2601 66.2473C58.9927 65.0647 60.3044 63.303 61.1955 60.9623C62.1112 58.597 62.5691 55.6896 62.5691 52.2402V49.9119C62.5691 47.3248 62.3092 45.0581 61.7895 43.1116C61.2945 41.1405 60.5519 39.502 59.5619 38.1962C58.5719 36.8657 57.3344 35.8678 55.8494 35.2026C54.3891 34.5373 52.706 34.2047 50.8003 34.2047H38.7715V24.1891H50.8003C54.4633 24.1891 57.817 24.8174 60.8613 26.0739C63.9304 27.3059 66.5787 29.0799 68.8062 31.3959C71.0585 33.6873 72.7911 36.4099 74.0038 39.5636C75.2414 42.6927 75.8601 46.1668 75.8601 49.9858V52.2402C75.8601 56.0346 75.2414 59.5086 74.0038 62.6624C72.7911 65.8161 71.0709 68.5387 68.8434 70.8301C66.6158 73.1215 63.9799 74.8955 60.9356 76.1521C57.916 77.384 54.5995 78 50.9859 78ZM46.4565 24.1891V78H33.4254V24.1891H46.4565Z" fill="#550F46"/>
<path d="M53.3362 75.6715H41.3446L41.4189 65.6929H53.3362C55.8113 65.6929 57.9027 65.1015 59.6105 63.9189C61.343 62.7362 62.6548 60.9746 63.5458 58.6339C64.4616 56.2686 64.9195 53.3612 64.9195 49.9118V47.5834C64.9195 44.9964 64.6596 42.7296 64.1398 40.7832C63.6448 38.8121 62.9023 37.1736 61.9123 35.8677C60.9223 34.5373 59.6847 33.5394 58.1997 32.8741C56.7394 32.2089 55.0564 31.8763 53.1506 31.8763H41.1219V21.8607H53.1506C56.8137 21.8607 60.1674 22.4889 63.2117 23.7455C66.2807 24.9775 68.929 26.7514 71.1566 29.0675C73.4089 31.3589 75.1414 34.0814 76.3542 37.2352C77.5917 40.3643 78.2105 43.8384 78.2105 47.6574V49.9118C78.2105 53.7062 77.5917 57.1802 76.3542 60.334C75.1414 63.4877 73.4212 66.2103 71.1937 68.5017C68.9662 70.7931 66.3302 72.5671 63.2859 73.8236C60.2664 75.0556 56.9498 75.6715 53.3362 75.6715ZM48.8069 21.8607V75.6715H35.7758V21.8607H48.8069Z" fill="#9E1881"/>
<path d="M56.731 72.3084H44.7394L44.8136 62.3298H56.731C59.206 62.3298 61.2975 61.7384 63.0052 60.5558C64.7378 59.3731 66.0496 57.6115 66.9406 55.2708C67.8563 52.9055 68.3142 49.9981 68.3142 46.5487V44.2203C68.3142 41.6333 68.0543 39.3665 67.5346 37.4201C67.0396 35.449 66.2971 33.8105 65.307 32.5046C64.317 31.1742 63.0795 30.1763 61.5945 29.5111C60.1342 28.8458 58.4512 28.5132 56.5454 28.5132H44.5166V18.4976H56.5454C60.2084 18.4976 63.5621 19.1258 66.6064 20.3824C69.6755 21.6144 72.3238 23.3883 74.5514 25.7044C76.8036 27.9958 78.5362 30.7183 79.749 33.8721C80.9865 37.0012 81.6052 40.4753 81.6052 44.2943V46.5487C81.6052 50.3431 80.9865 53.8171 79.749 56.9709C78.5362 60.1246 76.816 62.8472 74.5885 65.1386C72.3609 67.43 69.725 69.204 66.6807 70.4605C63.6611 71.6925 60.3446 72.3084 56.731 72.3084ZM52.2017 18.4976V72.3084H39.1705V18.4976H52.2017Z" fill="#D329AE"/>
<path d="M60.1258 68.9452H48.1342L48.2084 58.9665H60.1258C62.6008 58.9665 64.6922 58.3752 66.4 57.1925C68.1326 56.0099 69.4443 54.2482 70.3354 51.9075C71.2511 49.5422 71.709 46.6348 71.709 43.1854V40.8571C71.709 38.27 71.4491 36.0032 70.9294 34.0568C70.4344 32.0857 69.6918 30.4472 68.7018 29.1414C67.7118 27.8109 66.4743 26.813 64.9892 26.1478C63.529 25.4825 61.8459 25.1499 59.9401 25.1499H47.9114V15.1343H59.9401C63.6032 15.1343 66.9569 15.7626 70.0012 17.0191C73.0703 18.2511 75.7186 20.0251 77.9461 22.3411C80.1984 24.6325 81.931 27.3551 83.1437 30.5088C84.3813 33.6379 85 37.112 85 40.931V43.1854C85 46.9798 84.3813 50.4538 83.1437 53.6076C81.931 56.7613 80.2108 59.4839 77.9833 61.7753C75.7557 64.0667 73.1198 65.8407 70.0755 67.0973C67.0559 68.3292 63.7393 68.9452 60.1258 68.9452ZM55.5964 15.1343V68.9452H42.5653V15.1343H55.5964Z" fill="white"/>
<path d="M13.1854 9.05481V62.8657H0V9.05481H13.1854ZM45.8295 9.05481L24.6427 36.3298L12.2462 49.6717L9.84207 37.7712L17.7683 25.9446L29.5638 9.05481H45.8295ZM30.2399 62.8657L16.1154 38.6212L26.3707 31.1927L45.8295 62.8657H30.2399Z" fill="#550F46"/>
<path d="M15.5356 6.72638V60.5373H2.35022V6.72638H15.5356ZM48.1797 6.72638L26.993 34.0014L14.5965 47.3432L12.1923 35.4428L20.1185 23.6162L31.914 6.72638H48.1797ZM32.5902 60.5373L18.4657 36.2928L28.721 28.8642L48.1797 60.5373H32.5902Z" fill="#9E1881"/>
<path d="M18.9304 3.36322V57.1741H5.745V3.36322H18.9304ZM51.5745 3.36322L30.3877 30.6382L17.9912 43.9801L15.5871 32.0796L23.5133 20.253L35.3088 3.36322H51.5745ZM35.9849 57.1741L21.8604 32.9296L32.1157 25.5011L51.5745 57.1741H35.9849Z" fill="#D329AE"/>
<path d="M22.3253 0V53.8109H9.13989V0H22.3253ZM54.9694 0L33.7826 27.275L21.3861 40.6169L18.982 28.7164L26.9082 16.8898L38.7037 0H54.9694ZM39.3798 53.8109L25.2553 29.5664L35.5106 22.1379L54.9694 53.8109H39.3798Z" fill="white"/>
</svg>
